<?xml version="1.0" standalone="no"?>
<!DOCTYPE svg PUBLIC "-//W3C//DTD SVG 20010904//EN"
 "http://www.w3.org/TR/2001/REC-SVG-20010904/DTD/svg10.dtd">
<svg version="1.0" xmlns="http://www.w3.org/2000/svg"
 width="700.000000pt" height="700.000000pt" viewBox="0 0 700.000000 700.000000"
 preserveAspectRatio="xMidYMid meet">
<metadata>
Created by potrace 1.11, written by Peter Selinger 2001-2013
</metadata>
<g transform="translate(0.000000,700.000000) scale(0.100000,-0.100000)"
fill="#000000" stroke="none">
<path d="M1724 6368 c-13 -26 -34 -65 -45 -85 -12 -21 -40 -72 -62 -113 -22
-41 -86 -160 -142 -265 -56 -104 -126 -235 -155 -290 -30 -55 -62 -116 -73
-135 -32 -57 -70 -128 -132 -245 -32 -60 -65 -123 -75 -140 -10 -16 -37 -66
-60 -110 -24 -44 -55 -102 -70 -130 -15 -27 -51 -95 -80 -150 -29 -55 -110
-206 -180 -335 -110 -203 -160 -297 -253 -470 -10 -19 -31 -57 -46 -85 -117
-216 -169 -323 -162 -331 5 -5 35 -58 67 -119 31 -60 93 -175 135 -254 43 -78
88 -162 99 -185 12 -22 31 -59 44 -81 12 -22 46 -85 75 -140 30 -55 68 -127
86 -160 18 -33 62 -114 97 -180 36 -66 84 -156 108 -200 23 -44 55 -102 70
-130 15 -27 46 -84 68 -125 40 -75 53 -100 185 -345 38 -71 87 -164 110 -205
88 -165 122 -228 164 -304 23 -43 43 -80 43 -82 0 -2 27 -52 59 -111 33 -59
80 -146 105 -193 l45 -85 1750 -1 1751 -1 41 76 c46 84 81 148 126 231 17 30
58 107 93 170 70 128 80 147 204 375 48 88 91 167 96 175 5 8 21 38 36 65 25
47 233 428 294 540 15 28 54 97 85 155 31 58 70 128 85 155 15 28 42 77 60
110 18 33 45 83 60 110 15 28 58 106 95 175 37 69 80 148 95 175 59 106 145
263 182 333 l40 72 -100 183 c-55 100 -111 202 -124 227 -14 25 -56 101 -93
170 -37 69 -78 143 -90 165 -63 115 -146 268 -180 330 -21 39 -51 95 -68 125
-16 30 -43 80 -60 110 -16 30 -41 75 -55 100 -27 49 -68 125 -115 210 -16 30
-69 127 -117 215 -48 88 -102 187 -120 220 -55 102 -102 188 -133 245 -17 30
-99 181 -183 335 l-153 280 -1751 1 -1752 0 -24 -48z m2186 -1427 c25 -7 54
-15 64 -17 92 -17 336 -139 430 -214 297 -237 461 -513 527 -890 36 -204 30
-511 -15 -715 -115 -531 -515 -941 -1016 -1045 -90 -18 -134 -19 -830 -17
l-735 2 -1 1450 c0 798 1 1453 3 1457 2 3 346 5 766 4 584 -2 772 -5 807 -15z"/>
<path d="M2922 4365 c-6 -9 -11 -1710 -5 -1730 2 -7 152 -10 441 -9 426 1 438
1 494 23 238 92 396 260 472 501 59 186 66 434 17 636 -20 85 -73 218 -97 245
-7 8 -14 19 -14 24 0 17 -109 135 -165 178 -74 56 -189 116 -260 134 -39 10
-876 9 -883 -2z"/>
</g>
</svg>
